<svg width="32" height="32" viewBox="0 0 32 32" fill="none" xmlns="http://www.w3.org/2000/svg">
<path d="M8.29918 23.905C8.48788 24.0889 8.74234 24.1898 9.00584 24.185C9.26855 24.1855 9.52145 24.0853 9.71251 23.905L22.1525 11.4533V22.1983C22.1525 22.7506 22.6002 23.1983 23.1525 23.1983C23.4211 23.2056 23.6811 23.103 23.8723 22.9143C24.0636 22.7255 24.1696 22.467 24.1658 22.1983V9.222C24.2005 9.06988 24.1997 8.90917 24.1597 8.75259C24.0692 8.39827 23.7925 8.12161 23.4382 8.03112C23.2816 7.99114 23.1209 7.99033 22.9688 8.02497H9.99251C9.44022 8.02497 8.99251 8.47269 8.99251 9.02497C8.99251 9.57726 9.44022 10.025 9.99251 10.025H20.7525L8.29918 22.4783C8.1078 22.6663 8 22.9234 8 23.1916C8 23.4599 8.1078 23.717 8.29918 23.905Z" fill="#234A75"/>
</svg>
