<svg width="32" height="32" viewBox="0 0 32 32" fill="none" xmlns="http://www.w3.org/2000/svg">
<path fill-rule="evenodd" clip-rule="evenodd" d="M25.1349 8.60161C25.2489 8.48773 25.3394 8.35251 25.4011 8.20366C25.4629 8.05481 25.4947 7.89525 25.4948 7.7341C25.4949 7.57295 25.4633 7.41335 25.4017 7.26443C25.3401 7.11551 25.2498 6.98017 25.136 6.86615C25.0221 6.75212 24.8868 6.66165 24.738 6.59989C24.5891 6.53813 24.4296 6.50629 24.2684 6.50619C24.1073 6.50609 23.9477 6.53773 23.7988 6.59931C23.6498 6.66089 23.5145 6.7512 23.4005 6.86508L16 14.2656L8.60155 6.86508C8.37127 6.6348 8.05895 6.50543 7.73329 6.50543C7.40762 6.50543 7.0953 6.6348 6.86502 6.86508C6.63474 7.09536 6.50537 7.40768 6.50537 7.73335C6.50537 8.05901 6.63474 8.37133 6.86502 8.60161L14.2656 16L6.86502 23.3984C6.751 23.5124 6.66055 23.6478 6.59884 23.7968C6.53713 23.9458 6.50537 24.1054 6.50537 24.2667C6.50537 24.4279 6.53713 24.5876 6.59884 24.7366C6.66055 24.8856 6.751 25.0209 6.86502 25.1349C7.0953 25.3652 7.40762 25.4946 7.73329 25.4946C7.89454 25.4946 8.05421 25.4628 8.20319 25.4011C8.35217 25.3394 8.48753 25.249 8.60155 25.1349L16 17.7344L23.4005 25.1349C23.6308 25.3649 23.943 25.494 24.2684 25.4938C24.5939 25.4936 24.906 25.3642 25.136 25.1339C25.3659 24.9036 25.495 24.5914 25.4948 24.2659C25.4946 23.9405 25.3652 23.6284 25.1349 23.3984L17.7344 16L25.1349 8.60161Z" fill="#C10505"/>
</svg>
