<svg width="75" height="135" viewBox="0 0 75 135" fill="none" xmlns="http://www.w3.org/2000/svg">
<path d="M39.0001 11.5C39.0001 11.5 19.9685 29.5397 23.0001 43C25.7969 55.4185 37 67 47.5001 67C53.0949 67 58.7251 63.4973 60.0001 57.5C61.5944 50 54.9231 42.1092 47.5001 43C35.0001 44.5 28.221 50.529 26 60C25.5932 61.7347 25.7777 63.8104 26.318 66" stroke="#C6C7D4" stroke-width="1.4" stroke-linecap="round" stroke-dasharray="2 2"/>
<path fill-rule="evenodd" clip-rule="evenodd" d="M72.0751 112.422C72.0751 125.13 64.5869 132.618 51.8795 132.618H24.228C11.4883 132.618 4 125.13 4 112.422V84.7386C4 72.0312 8.66801 64.543 21.3754 64.543H28.4746C31.0255 64.543 33.4275 65.744 34.958 67.7846L38.1996 72.0961C39.7335 74.1327 42.1333 75.3327 44.683 75.3377H54.7322C67.4719 75.3377 72.1724 81.8211 72.1724 94.7878L72.0751 112.422Z" stroke="#2F3367" stroke-width="4" stroke-linecap="round" stroke-linejoin="round"/>
<path d="M20.9869 107.916H55.0569" stroke="#2F3367" stroke-width="4" stroke-linecap="round" stroke-linejoin="round"/>
<path d="M55.2917 6.02083C55.2917 8.17244 53.5474 9.91667 51.3958 9.91667C49.2442 9.91667 47.5 8.17244 47.5 6.02083C47.5 3.86922 49.2442 2.125 51.3958 2.125C53.5474 2.125 55.2917 3.86922 55.2917 6.02083Z" fill="#616489"/>
<path d="M44.6666 6.02018C44.6666 7.38939 43.5567 8.49935 42.1875 8.49935C40.8183 8.49935 39.7083 7.38939 39.7083 6.02018C39.7083 4.65098 40.8183 3.54102 42.1875 3.54102C43.5567 3.54102 44.6666 4.65098 44.6666 6.02018Z" fill="#323669"/>
<path d="M48.2084 12.0423C48.2084 13.6071 46.9398 14.8757 45.375 14.8757C43.8102 14.8757 42.5417 13.6071 42.5417 12.0423C42.5417 10.4775 43.8102 9.20898 45.375 9.20898C46.9398 9.20898 48.2084 10.4775 48.2084 12.0423Z" fill="#323669"/>
</svg>
