<svg width="60" height="60" viewBox="0 0 60 60" fill="none" xmlns="http://www.w3.org/2000/svg">
<circle cx="30" cy="30" r="29" stroke="#234A75" stroke-width="2"/>
<path fill-rule="evenodd" clip-rule="evenodd" d="M31.7203 17.3905L40.8537 23.8039C42.2736 24.8018 43.1192 26.4283 43.1203 28.1639V37.6705C43.1168 39.1805 42.5136 40.6272 41.4434 41.6924C40.3732 42.7576 38.9236 43.3541 37.4137 43.3505H22.3737C20.8637 43.3541 19.4142 42.7576 18.344 41.6924C17.2737 40.6272 16.6705 39.1805 16.667 37.6705V28.1639C16.6681 26.4283 17.5137 24.8018 18.9337 23.8039L28.067 17.3905C29.0935 16.4254 30.6938 16.4254 31.7203 17.3905ZM40.0292 40.2782C40.7243 39.5881 41.1168 38.6501 41.1203 37.6705V28.1639C41.1017 27.1004 40.5766 26.1097 39.707 25.4972L30.5737 19.0839L30.427 18.9772C30.2866 18.8339 30.0943 18.7531 29.8937 18.7531C29.693 18.7531 29.5008 18.8339 29.3603 18.9772L29.2137 19.0839L20.0803 25.4972C19.2107 26.1097 18.6857 27.1004 18.667 28.1639V37.6705C18.6705 38.6501 19.063 39.5881 19.7582 40.2782C20.4533 40.9684 21.3941 41.3541 22.3737 41.3505H37.4137C38.3932 41.3541 39.334 40.9684 40.0292 40.2782Z" fill="#234A75"/>
<path d="M37.987 28.6839L30.6003 33.8439C30.3816 34.0626 30.0814 34.1798 29.7724 34.1672C29.4633 34.1545 29.1737 34.0131 28.9737 33.7772L21.8003 28.6839C21.5122 28.4347 21.1075 28.3708 20.7566 28.5192C20.4057 28.6677 20.1697 29.0025 20.1478 29.3829C20.126 29.7632 20.3221 30.1229 20.6537 30.3105L27.7203 35.3505C28.2998 35.89 29.062 36.1901 29.8537 36.1905C30.5982 36.1717 31.3081 35.8716 31.8403 35.3505L39.1337 30.2572C39.5529 29.9469 39.6632 29.3664 39.387 28.9239C39.0639 28.4755 38.441 28.3687 37.987 28.6839Z" fill="#234A75"/>
</svg>
