<svg width="32" height="32" viewBox="0 0 32 32" fill="none" xmlns="http://www.w3.org/2000/svg">
<path d="M15.9998 24C10.0138 24 2.6665 18.7904 2.6665 16C2.6665 13.2096 10.0138 8 15.9998 8C21.9859 8 29.3332 13.2096 29.3332 16C29.3332 18.7904 21.9859 24 15.9998 24ZM5.23426 16.6165C5.87424 17.3253 6.7536 18.1015 7.75073 18.8085C10.2926 20.6109 13.1666 21.7032 15.9998 21.7032C18.8331 21.7032 21.7071 20.6109 24.2489 18.8085C25.2461 18.1015 26.1254 17.3253 26.7654 16.6165C26.9719 16.3877 27.1427 16.1773 27.2689 16C27.1427 15.8227 26.9719 15.6123 26.7654 15.3835C26.1254 14.6747 25.2461 13.8985 24.2489 13.1915C21.7071 11.3891 18.8331 10.2968 15.9998 10.2968C13.1666 10.2968 10.2926 11.3891 7.75073 13.1915C6.7536 13.8985 5.87424 14.6747 5.23426 15.3835C5.02774 15.6123 4.85698 15.8227 4.73075 16C4.85698 16.1773 5.02774 16.3877 5.23426 16.6165ZM15.9998 20.6667C13.4225 20.6667 11.3332 18.5773 11.3332 16C11.3332 13.4227 13.4225 11.3333 15.9998 11.3333C18.5772 11.3333 20.6665 13.4227 20.6665 16C20.6665 18.5773 18.5772 20.6667 15.9998 20.6667ZM15.9998 18.2667C17.2517 18.2667 18.2665 17.2518 18.2665 16C18.2665 14.7482 17.2517 13.7333 15.9998 13.7333C14.748 13.7333 13.7332 14.7482 13.7332 16C13.7332 17.2518 14.748 18.2667 15.9998 18.2667Z" fill="#234A75"/>
</svg>
