<svg width="25" height="24" viewBox="0 0 25 24" fill="none" xmlns="http://www.w3.org/2000/svg">
<path fill-rule="evenodd" clip-rule="evenodd" d="M8.23866 3.35014C9.09731 1.74671 10.7698 0.747062 12.5887 0.750141C14.4397 0.73626 16.1469 1.74618 17.0262 3.37514L24.0762 16.4251C24.9125 17.9746 24.8722 19.8498 23.9701 21.3619C23.068 22.874 21.4369 23.8002 19.6762 23.8001H5.50116C3.7351 23.8006 2.09983 22.8693 1.19913 21.3501C0.298441 19.831 0.265951 17.9494 1.11366 16.4001L8.23866 3.35014ZM15.3387 4.26264C14.7964 3.24922 13.738 2.61897 12.5887 2.62514C11.4562 2.633 10.4174 3.25534 9.87616 4.25014L2.76366 17.2751C2.23242 18.241 2.25167 19.4158 2.81426 20.3637C3.37685 21.3116 4.39886 21.8913 5.50116 21.8876H19.6762C20.7745 21.8809 21.7894 21.3003 22.3519 20.3569C22.9144 19.4135 22.9426 18.2446 22.4262 17.2751L15.3387 4.26264Z" fill="white"/>
<path d="M12.5887 15.7503C12.0709 15.7503 11.6512 16.17 11.6512 16.6878C11.6512 17.2055 12.0709 17.6253 12.5887 17.6253C12.8383 17.6287 13.0788 17.531 13.2553 17.3544C13.4319 17.1779 13.5296 16.9374 13.5262 16.6878C13.5262 16.4403 13.427 16.2031 13.2508 16.0292C13.0746 15.8554 12.8361 15.7594 12.5887 15.7628V15.7503Z" fill="white"/>
<path d="M12.5887 14.0378C12.0737 14.031 11.6579 13.6152 11.6512 13.1003V9.22528C11.6512 8.70751 12.0709 8.28778 12.5887 8.28778C13.1064 8.28778 13.5262 8.70751 13.5262 9.22528V13.1003C13.5262 13.618 13.1064 14.0378 12.5887 14.0378Z" fill="white"/>
</svg>
