<svg width="46" height="41" viewBox="0 0 46 41" fill="none" xmlns="http://www.w3.org/2000/svg">
<mask id="mask0_622_3600" style="mask-type:alpha" maskUnits="userSpaceOnUse" x="0" y="0" width="46" height="41">
<path d="M0.961426 40.624V0.624023H45.3355V40.624H0.961426Z" fill="white"/>
</mask>
<g mask="url(#mask0_622_3600)">
<path fill-rule="evenodd" clip-rule="evenodd" d="M45.3356 20.6111C45.3356 31.6637 35.3927 40.6236 23.1278 40.6236C10.8628 40.6236 0.919922 31.6637 0.919922 20.6111C0.919922 9.55861 10.8628 0.598633 23.1278 0.598633C35.3927 0.598633 45.3356 9.55861 45.3356 20.6111Z" fill="#234A75"/>
</g>
<path fill-rule="evenodd" clip-rule="evenodd" d="M34.2315 30.617H27.2915C26.9234 30.617 26.5704 30.4852 26.3101 30.2507C26.0498 30.0161 25.9035 29.6979 25.9035 29.3662V25.9266C25.9035 25.6778 26.0132 25.4392 26.2084 25.2632C26.4037 25.0873 26.6685 24.9885 26.9445 24.9885H29.0689C30.0904 24.9885 30.3757 24.3568 29.7032 23.5845L24.3504 17.4375C24.0138 17.0516 23.571 16.8584 23.1276 16.8584C22.6841 16.8584 22.2413 17.0516 21.9047 17.4375L16.552 23.5845C15.8795 24.3568 16.1647 24.9885 17.1863 24.9885H19.3106C19.5867 24.9885 19.8515 25.0873 20.0467 25.2632C20.2419 25.4392 20.3516 25.6778 20.3516 25.9266V29.3662C20.3516 29.6979 20.2054 30.0161 19.9451 30.2507C19.6848 30.4852 19.3317 30.617 18.9636 30.617H13.4116C9.5787 30.617 6.47168 27.8171 6.47168 24.3631C6.47168 21.2305 9.03044 18.6433 12.3651 18.188C13.5692 13.8346 17.924 10.6045 23.1276 10.6045C29.2597 10.6045 34.2315 15.0848 34.2315 20.6107C35.704 20.6107 37.1161 21.1379 38.1573 22.0761C39.1985 23.0144 39.7835 24.287 39.7835 25.6139C39.7835 26.9408 39.1985 28.2133 38.1573 29.1516C37.1161 30.0899 35.704 30.617 34.2315 30.617Z" fill="#629986"/>
<path fill-rule="evenodd" clip-rule="evenodd" d="M34.2315 19.3607C34.2315 13.8342 29.2597 9.35449 23.1276 9.35449C17.924 9.35449 13.5692 12.5846 12.3651 16.938C9.03044 17.3933 6.47168 19.9805 6.47168 23.1131C6.47168 26.5671 9.5787 29.367 13.4116 29.367H18.9636C19.3317 29.367 19.6848 29.2352 19.9451 29.0007C20.2054 28.7661 20.3516 28.4479 20.3516 28.1162V24.6766C20.3516 24.4278 20.2419 24.1892 20.0467 24.0132C19.8515 23.8373 19.5867 23.7385 19.3106 23.7385H17.1863C16.1647 23.7385 15.8795 23.1068 16.552 22.3345L21.9047 16.1875C22.5772 15.4152 23.6779 15.4152 24.3504 16.1875L29.7032 22.3345C30.3757 23.1068 30.0904 23.7385 29.0689 23.7385H26.9445C26.6685 23.7385 26.4037 23.8373 26.2084 24.0132C26.0132 24.1892 25.9035 24.4278 25.9035 24.6766V28.1162C25.9035 28.4479 26.0498 28.7661 26.3101 29.0007C26.5704 29.2352 26.9234 29.367 27.2915 29.367H34.2315C35.704 29.367 37.1161 28.8399 38.1573 27.9016C39.1985 26.9633 39.7835 25.6908 39.7835 24.3639C39.7835 23.037 39.1985 21.7644 38.1573 20.8261C37.1161 19.8879 35.704 19.3607 34.2315 19.3607Z" fill="#FFFFFE"/>
</svg>
