<svg width="27" height="27" viewBox="0 0 27 27" fill="none" xmlns="http://www.w3.org/2000/svg">
<path d="M13.7198 8.72002C13.2085 8.77897 12.8226 9.21194 12.8226 9.72669C12.8226 10.2414 13.2085 10.6744 13.7198 10.7334C13.9885 10.7371 14.2471 10.6311 14.4358 10.4398C14.6246 10.2486 14.7271 9.98862 14.7198 9.72002C14.7127 9.17074 14.2691 8.7272 13.7198 8.72002Z" fill="#234A75"/>
<path d="M13.7198 12.56C13.4535 12.5564 13.1971 12.6606 13.0087 12.8489C12.8204 13.0372 12.7162 13.2937 12.7198 13.56V17.72C12.7198 18.2723 13.1676 18.72 13.7198 18.72C14.2721 18.72 14.7198 18.2723 14.7198 17.72V13.5867C14.727 13.3169 14.6249 13.0556 14.4365 12.8623C14.2482 12.6689 13.9897 12.5599 13.7198 12.56Z" fill="#234A75"/>
<path fill-rule="evenodd" clip-rule="evenodd" d="M13.7198 0.666687C6.51373 0.674036 0.673853 6.51391 0.666504 13.72C0.666504 20.9292 6.51068 26.7734 13.7198 26.7734C20.929 26.7734 26.7732 20.9292 26.7732 13.72C26.7658 6.51391 20.9259 0.674036 13.7198 0.666687ZM13.7198 24.7734C7.61525 24.7734 2.6665 19.8246 2.6665 13.72C2.6665 7.61543 7.61525 2.66669 13.7198 2.66669C19.8244 2.66669 24.7732 7.61543 24.7732 13.72C24.7658 19.8216 19.8214 24.766 13.7198 24.7734Z" fill="#234A75"/>
</svg>
