<svg width="24" height="24" viewBox="0 0 24 24" fill="none" xmlns="http://www.w3.org/2000/svg">
<path d="M22.3333 10.6667H12.6667V1C12.6667 0.447715 12.219 0 11.6667 0C11.1144 0 10.6667 0.447715 10.6667 1V10.6667H1C0.447715 10.6667 0 11.1144 0 11.6667C0 12.219 0.447715 12.6667 1 12.6667H10.6667V22.3333C10.6667 22.8856 11.1144 23.3333 11.6667 23.3333C12.219 23.3333 12.6667 22.8856 12.6667 22.3333V12.6667H22.3333C22.8856 12.6667 23.3333 12.219 23.3333 11.6667C23.3333 11.1144 22.8856 10.6667 22.3333 10.6667Z" fill="white"/>
</svg>
