<svg width="60" height="60" viewBox="0 0 60 60" fill="none" xmlns="http://www.w3.org/2000/svg">
<path d="M35.3333 26.9999C35.3333 26.4028 35.1055 25.8057 34.6499 25.3501C34.1943 24.8945 33.5972 24.6667 33 24.6667M33 34C36.866 34 40 30.866 40 27C40 23.134 36.866 20 33 20C29.134 20 26 23.134 26 27C26 27.3193 26.0214 27.6336 26.0628 27.9415C26.1309 28.448 26.1649 28.7013 26.142 28.8615C26.1181 29.0284 26.0877 29.1184 26.0055 29.2655C25.9265 29.4068 25.7873 29.546 25.509 29.8243L19.5467 35.7866C19.345 35.9884 19.2441 36.0893 19.1719 36.207C19.108 36.3114 19.0608 36.4252 19.0322 36.5442C19 36.6785 19 36.8212 19 37.1065V39.1333C19 39.7867 19 40.1134 19.1272 40.363C19.239 40.5825 19.4175 40.761 19.637 40.8728C19.8866 41 20.2133 41 20.8667 41H23.6667V38.6667H26V36.3333H28.3333L30.1757 34.491C30.454 34.2127 30.5932 34.0735 30.7345 33.9945C30.8816 33.9123 30.9716 33.8819 31.1385 33.858C31.2987 33.8351 31.552 33.8691 32.0585 33.9372C32.3664 33.9786 32.6807 34 33 34Z" stroke="#234A75" stroke-width="2" stroke-linecap="round" stroke-linejoin="round"/>
<circle cx="30" cy="30" r="29" stroke="#234A75" stroke-width="2"/>
</svg>
