<svg width="30" height="24" viewBox="0 0 30 24" fill="none" xmlns="http://www.w3.org/2000/svg">
<path fill-rule="evenodd" clip-rule="evenodd" d="M12.2585 0.333344H17.7411C20.1918 0.333344 22.1332 0.333344 23.6518 0.537344C25.2145 0.74801 26.4798 1.19068 27.4785 2.18801C28.3825 3.09201 28.8318 4.21734 29.0652 5.58801C29.2345 6.58801 29.2958 7.77334 29.3185 9.16534C29.3359 9.26669 29.3377 9.37012 29.3238 9.47201C29.3278 9.85334 29.3305 10.2507 29.3318 10.664C29.3325 10.9292 29.2278 11.1839 29.0408 11.3719C28.9482 11.465 28.8382 11.539 28.717 11.5895C28.5958 11.6401 28.4658 11.6663 28.3345 11.6667C28.0693 11.6674 27.8146 11.5627 27.6266 11.3757C27.4386 11.1886 27.3325 10.9346 27.3318 10.6693V10.3333H2.66782C2.66515 10.8507 2.66515 11.4053 2.66515 12C2.66515 14.5427 2.66782 16.348 2.85182 17.72C3.03182 19.06 3.37048 19.8333 3.93448 20.3973C4.49848 20.9613 5.27182 21.3 6.61315 21.48C7.98382 21.664 9.78915 21.6667 12.3318 21.6667H14.3318C14.597 21.6667 14.8514 21.772 15.0389 21.9596C15.2265 22.1471 15.3318 22.4015 15.3318 22.6667C15.3318 22.9319 15.2265 23.1862 15.0389 23.3738C14.8514 23.5613 14.597 23.6667 14.3318 23.6667H12.2585C9.80782 23.6667 7.86648 23.6667 6.34782 23.4627C4.78515 23.252 3.51982 22.8093 2.52115 21.812C1.52382 20.8133 1.08115 19.548 0.870484 17.9853C0.666484 16.4653 0.666484 14.5253 0.666484 12.0747V11.9253C0.666484 11.0427 0.666484 10.2267 0.675817 9.47201C0.661522 9.37018 0.662871 9.26676 0.679817 9.16534C0.701151 7.95601 0.750484 6.91201 0.870484 6.01468C1.08115 4.45201 1.52382 3.18668 2.52115 2.18801C3.51982 1.19068 4.78515 0.74801 6.34782 0.537344C7.86782 0.333344 9.80782 0.333344 12.2585 0.333344ZM2.70115 8.33334H27.2985C27.2665 7.38001 27.2052 6.59201 27.0932 5.92268C26.9025 4.80001 26.5772 4.11601 26.0638 3.60268C25.4998 3.03868 24.7265 2.70001 23.3852 2.52001C22.0158 2.33601 20.2092 2.33334 17.6665 2.33334H12.3332C9.79048 2.33334 7.98515 2.33601 6.61315 2.52001C5.27315 2.70001 4.49982 3.03868 3.93582 3.60268C3.37182 4.16668 3.03315 4.94001 2.85315 6.28134C2.77315 6.87468 2.72782 7.55068 2.70115 8.33334ZM19.6665 13.6667C19.9317 13.6667 20.1861 13.772 20.3736 13.9596C20.5611 14.1471 20.6665 14.4015 20.6665 14.6667V20.2533L21.6265 19.2933C21.718 19.1951 21.8284 19.1163 21.9511 19.0616C22.0738 19.007 22.2062 18.9776 22.3405 18.9752C22.4747 18.9729 22.6081 18.9976 22.7326 19.0478C22.8571 19.0981 22.9702 19.173 23.0652 19.268C23.1602 19.3629 23.235 19.476 23.2853 19.6005C23.3356 19.7251 23.3603 19.8584 23.3579 19.9927C23.3556 20.127 23.3262 20.2594 23.2715 20.3821C23.2169 20.5047 23.1381 20.6151 23.0398 20.7067L20.3732 23.3733C20.1857 23.5606 19.9315 23.6658 19.6665 23.6658C19.4015 23.6658 19.1473 23.5606 18.9598 23.3733L16.2932 20.7067C16.1949 20.6151 16.1161 20.5047 16.0614 20.3821C16.0068 20.2594 15.9774 20.127 15.975 19.9927C15.9727 19.8584 15.9974 19.7251 16.0477 19.6005C16.0979 19.476 16.1728 19.3629 16.2678 19.268C16.3627 19.173 16.4758 19.0981 16.6004 19.0478C16.7249 18.9976 16.8582 18.9729 16.9925 18.9752C17.1268 18.9776 17.2592 19.007 17.3819 19.0616C17.5045 19.1163 17.6149 19.1951 17.7065 19.2933L18.6665 20.2533V14.6667C18.6665 14.4015 18.7718 14.1471 18.9594 13.9596C19.1469 13.772 19.4013 13.6667 19.6665 13.6667ZM24.9598 13.96C25.1473 13.7727 25.4015 13.6676 25.6665 13.6676C25.9315 13.6676 26.1857 13.7727 26.3732 13.96L29.0398 16.6267C29.1381 16.7182 29.2169 16.8286 29.2715 16.9513C29.3262 17.074 29.3556 17.2064 29.3579 17.3406C29.3603 17.4749 29.3356 17.6083 29.2853 17.7328C29.235 17.8573 29.1602 17.9704 29.0652 18.0654C28.9702 18.1604 28.8571 18.2352 28.7326 18.2855C28.6081 18.3358 28.4747 18.3605 28.3405 18.3581C28.2062 18.3558 28.0738 18.3264 27.9511 18.2717C27.8284 18.2171 27.718 18.1383 27.6265 18.04L26.6665 17.08V22.6667C26.6665 22.9319 26.5611 23.1862 26.3736 23.3738C26.1861 23.5613 25.9317 23.6667 25.6665 23.6667C25.4013 23.6667 25.1469 23.5613 24.9594 23.3738C24.7718 23.1862 24.6665 22.9319 24.6665 22.6667V17.08L23.7065 18.04C23.6149 18.1383 23.5045 18.2171 23.3819 18.2717C23.2592 18.3264 23.1268 18.3558 22.9925 18.3581C22.8582 18.3605 22.7249 18.3358 22.6004 18.2855C22.4758 18.2352 22.3627 18.1604 22.2678 18.0654C22.1728 17.9704 22.0979 17.8573 22.0477 17.7328C21.9974 17.6083 21.9727 17.4749 21.975 17.3406C21.9774 17.2064 22.0068 17.074 22.0614 16.9513C22.1161 16.8286 22.1949 16.7182 22.2931 16.6267L24.9598 13.96ZM5.99982 17.3333C5.99982 17.0681 6.10517 16.8138 6.29271 16.6262C6.48025 16.4387 6.7346 16.3333 6.99982 16.3333H12.3332C12.5984 16.3333 12.8527 16.4387 13.0403 16.6262C13.2278 16.8138 13.3332 17.0681 13.3332 17.3333C13.3332 17.5986 13.2278 17.8529 13.0403 18.0405C12.8527 18.228 12.5984 18.3333 12.3332 18.3333H6.99982C6.7346 18.3333 6.48025 18.228 6.29271 18.0405C6.10517 17.8529 5.99982 17.5986 5.99982 17.3333Z" fill="#234A75"/>
</svg>
