<svg width="58" height="58" viewBox="0 0 58 58" fill="none" xmlns="http://www.w3.org/2000/svg">
<g opacity="0.2">
<path d="M26.583 36.2162C26.583 36.8571 26.8376 37.4718 27.2909 37.925C27.7441 38.3782 28.3588 38.6328 28.9997 38.6328C29.6406 38.6328 30.2553 38.3782 30.7085 37.925C31.1618 37.4718 31.4164 36.8571 31.4164 36.2162V18.9177L39.2536 26.7549L42.6708 23.3377L28.9997 9.66666L15.3286 23.3377L18.7458 26.7549L26.583 18.9225V36.2186V36.2162Z" fill="black"/>
<path d="M9.6665 33.8333H14.4998V43.5H43.4998V33.8333H48.3332V43.5C48.3332 44.7819 47.8239 46.0112 46.9175 46.9177C46.0111 47.8241 44.7817 48.3333 43.4998 48.3333H14.4998C13.218 48.3333 11.9886 47.8241 11.0822 46.9177C10.1757 46.0112 9.6665 44.7819 9.6665 43.5V33.8333Z" fill="black"/>
</g>
</svg>
