<svg width="30" height="28" viewBox="0 0 30 28" fill="none" xmlns="http://www.w3.org/2000/svg">
<path d="M6.87163 25.4361H14.8068C15.3855 25.4361 15.8546 25.9052 15.8546 26.4839C15.8546 27.0626 15.3855 27.5317 14.8068 27.5317H6.87163C3.26617 27.5317 0.3412 24.613 0.333496 21.0075V7.21876C0.333488 3.60558 3.25846 0.674361 6.87163 0.666656H12.2642C14.2934 0.666656 15.9384 2.31166 15.9384 4.34087C15.9384 4.75955 16.1047 5.16109 16.4008 5.45714C16.6968 5.7532 17.0984 5.91952 17.5171 5.91952H22.9096C26.5151 5.92722 29.4338 8.85219 29.4338 12.4577C29.4342 13.0435 28.9714 13.5248 28.386 13.5473C28.1145 13.5587 27.8499 13.4597 27.6525 13.2728C27.4551 13.086 27.3418 12.8272 27.3382 12.5554C27.3569 11.365 26.8999 10.2162 26.0685 9.3639C25.2372 8.51158 24.1002 8.02609 22.9096 8.01508H17.5171C15.4879 8.01508 13.8428 6.37008 13.8428 4.34087C13.8277 3.47762 13.1275 2.78362 12.2642 2.77618H6.87163C4.42125 2.78385 2.43672 4.76838 2.42905 7.21876V21.0075C2.43675 23.4556 4.42351 25.4361 6.87163 25.4361Z" fill="#234A75"/>
<path d="M24.5442 19.8899H21.2751C20.6964 19.8899 20.2273 20.359 20.2273 20.9377C20.2273 21.5163 20.6964 21.9855 21.2751 21.9855H24.5442C25.1228 21.9855 25.5919 21.5163 25.5919 20.9377C25.5919 20.359 25.1228 19.8899 24.5442 19.8899Z" fill="#234A75"/>
<path fill-rule="evenodd" clip-rule="evenodd" d="M16.3016 18.1435C16.3016 16.0326 18.0047 14.317 20.1155 14.3016H25.7037C26.7275 14.2942 27.7118 14.6957 28.4384 15.417C29.1649 16.1383 29.5735 17.1197 29.5735 18.1435V23.7317C29.5735 24.7506 29.1687 25.7278 28.4482 26.4483C27.7278 27.1687 26.7506 27.5735 25.7316 27.5735H20.1435C19.1246 27.5735 18.1474 27.1687 17.4269 26.4483C16.7064 25.7278 16.3016 24.7506 16.3016 23.7317V18.1435ZM20.1435 25.4779H25.7316C26.6961 25.4779 27.4779 24.6961 27.4779 23.7317V18.1435C27.4779 17.6804 27.294 17.2362 26.9665 16.9087C26.639 16.5812 26.1948 16.3972 25.7316 16.3972H20.1435C19.179 16.3972 18.3972 17.179 18.3972 18.1435V23.7317C18.3972 24.6961 19.179 25.4779 20.1435 25.4779Z" fill="#234A75"/>
</svg>
